<svg width="262" height="65" viewBox="0 0 262 65" fill="none" xmlns="http://www.w3.org/2000/svg">
<path d="M49.0539 38.4401L36.0084 17.4766H26.5787V47.5423H35.9511V26.5788L49.0682 47.5423H58.412V17.4766H49.0539V38.4401ZM123.317 27.5886V24.6161H118.384V20.5699H109.277V24.6161H104.329V27.5814H109.277V47.5352H118.391V27.5814H123.31L123.317 27.5886ZM63.6174 47.5423H72.7177V27.553H63.6174V47.5423ZM63.5959 23.6134H72.7177V17.4694H63.5959V23.6134ZM223.128 26.1806C215.782 26.1806 209.825 31.2081 209.825 37.4019C209.825 43.6028 215.782 48.6232 223.128 48.6232C230.474 48.6232 236.431 43.5957 236.431 37.4019C236.431 31.201 230.474 26.1806 223.128 26.1806ZM226.772 41.6117C226.772 44.7974 224.882 46.113 223.056 46.113C221.23 46.113 219.326 44.7974 219.326 41.6117C219.326 40.4028 219.326 37.3023 219.326 37.3023C219.326 37.3023 219.326 34.3441 219.326 33.1352C219.326 29.9637 221.23 28.6552 223.049 28.6552C224.868 28.6552 226.765 29.9637 226.765 33.1352C226.765 34.3441 226.765 36.5841 226.772 37.3877C226.772 37.4375 226.772 40.4099 226.772 41.6117ZM197.875 28.5343C196.421 27.7237 194.889 26.9415 192.726 26.7495C186.168 26.1806 181.156 31.9406 181.156 37.217C181.156 44.1717 186.562 46.7459 187.385 47.1299C190.45 48.545 194.38 48.5521 197.86 46.3761C197.86 46.561 197.86 47.5352 197.86 47.5352H206.86V17.4766H197.875V28.5414V28.5343ZM197.939 37.4375C197.939 37.4375 197.939 39.6988 197.939 40.9859C197.939 44.0721 195.791 44.8828 194.373 44.8828C192.956 44.8828 190.808 44.0721 190.808 40.9859C190.808 39.9192 190.808 37.4303 190.808 37.4303C190.808 37.4303 190.808 34.8917 190.808 33.8677C190.808 30.7743 192.927 29.985 194.373 29.985C195.791 29.985 197.939 30.7743 197.939 33.8677C197.939 34.9343 197.939 37.4446 197.939 37.4446M94.0259 26.6286C91.0187 26.7139 88.5127 27.9939 86.7656 29.6437C86.7585 29.1459 86.7656 27.5388 86.7656 27.5388H77.7226V47.5352H86.7585C86.7585 47.5352 86.7513 35.2614 86.7513 34.4081C86.7513 32.6659 88.5914 30.7317 91.076 30.7317C93.5533 30.7317 95.2359 32.6659 95.2359 34.4081V47.5352H104.279C104.279 47.5352 104.279 38.0632 104.279 36.6623C104.329 28.7477 97.4197 26.5361 94.0187 26.6286M167.989 26.6286C164.981 26.7139 162.475 27.9939 160.728 29.6437C160.714 29.1459 160.728 27.5388 160.728 27.5388H151.7V47.5352H160.736C160.736 47.5352 160.728 35.2614 160.728 34.4081C160.728 32.6659 162.569 30.7317 165.053 30.7317C167.53 30.7317 169.213 32.6659 169.213 34.4081V47.5352H178.256C178.256 47.5352 178.256 38.0632 178.256 36.6623C178.306 28.7477 171.397 26.5361 167.996 26.6286M148.943 37.6294C148.943 31.4286 142.914 26.2943 135.511 26.2943C128.107 26.2943 122.107 31.3219 122.107 37.5157C122.107 43.7166 128.107 48.737 135.511 48.737C141.654 48.737 146.845 45.2597 148.428 40.5379H139.356C139.356 40.5379 139.363 40.6303 139.363 41.7539C139.363 45.409 136.943 46.2197 135.597 46.2197C134.251 46.2197 131.788 45.409 131.788 41.7539C131.788 40.6588 131.795 37.6294 131.795 37.6294H148.943ZM132.389 30.5966C133.098 29.3663 134.408 28.7832 135.59 28.769C136.771 28.7761 138.081 29.3592 138.79 30.5966C139.37 31.5992 139.392 32.7655 139.384 34.5219H131.788C131.773 32.7726 131.809 31.5992 132.389 30.5966ZM240.04 21.1957C240.04 20.2143 239.309 19.7237 237.834 19.7237H235.808V24.8508H237.061V22.753H237.677L238.665 24.8508H240.061L238.908 22.561C239.61 22.3832 240.033 21.8712 240.033 21.2028M237.677 22.0063H237.061V20.5201H237.613C238.364 20.5201 238.737 20.7477 238.737 21.281C238.737 21.8143 238.393 22.0063 237.677 22.0063ZM237.713 17.7255C235.142 17.7255 233.059 19.7948 233.059 22.3548C233.059 24.9077 235.142 26.9841 237.713 26.9841C240.29 26.9841 242.374 24.9148 242.374 22.3548C242.374 19.7948 240.29 17.7255 237.713 17.7255ZM237.713 26.0952C235.636 26.0952 233.947 24.417 233.947 22.3548C233.947 20.2855 235.636 18.6143 237.713 18.6143C239.796 18.6143 241.479 20.2926 241.479 22.3548C241.479 24.4241 239.796 26.0952 237.713 26.0952ZM227.56 0.644564H34.7912C14.3852 0.601897 0.68811 15.1654 0.68811 32.6303C0.68811 50.0952 14.3637 64.4952 34.827 64.5023H227.546C248.009 64.4952 261.684 50.0952 261.684 32.6303C261.684 15.1654 247.98 0.601897 227.581 0.644564M227.488 56.673H34.8843C18.6239 56.7299 8.73595 45.8926 8.73595 32.5877C8.73595 19.2828 18.6812 8.53078 34.8843 8.50234H227.481C243.684 8.53078 253.622 19.2828 253.622 32.5877C253.622 45.8926 243.742 56.7299 227.481 56.673" fill="white"/>
</svg>
